<svg version="1.1" xmlns="http://www.w3.org/2000/svg" viewBox="0 0 280 220" width="840" height="660">
  <!-- svg-source:excalidraw -->
  
  <defs>
    <style>
      @font-face {
        font-family: "Virgil";
        src: url("https://excalidraw.com/Virgil.woff2");
      }
      @font-face {
        font-family: "Cascadia";
        src: url("https://excalidraw.com/Cascadia.woff2");
      }
    </style>
  </defs>
  <g stroke-linecap="round" transform="translate(10 10) rotate(0 130 100)"><path d="M50 0 L216.05 0.2 L226.99 1.76 L236.37 4.88 L240.47 7.03 L247.5 12.5 L252.97 19.53 L256.88 28.13 L259.22 38.28 L260 50 L259.8 156.05 L256.88 171.88 L252.97 180.47 L247.5 187.5 L240.47 192.97 L231.88 196.88 L221.72 199.22 L210 200 L43.95 199.8 L28.13 196.88 L19.53 192.97 L12.5 187.5 L7.03 180.47 L4.88 176.37 L1.76 166.99 L0.2 156.05 L0 50 L1.76 33.01 L4.88 23.63 L7.03 19.53 L9.57 15.82 L15.82 9.57 L23.63 4.88 L28.13 3.12 L38.28 0.78 L50 0" stroke="none" stroke-width="0" fill="#ff0"></path><path d="M50 0 M50 0 C87.1 0, 124.19 0, 210 0 M50 0 C113.86 0, 177.73 0, 210 0 M210 0 C243.33 0, 260 16.67, 260 50 M210 0 C243.33 0, 260 16.67, 260 50 M260 50 C260 73.45, 260 96.89, 260 150 M260 50 C260 70.32, 260 90.64, 260 150 M260 150 C260 183.33, 243.33 200, 210 200 M260 150 C260 183.33, 243.33 200, 210 200 M210 200 C166.46 200, 122.91 200, 50 200 M210 200 C148.27 200, 86.55 200, 50 200 M50 200 C16.67 200, 0 183.33, 0 150 M50 200 C16.67 200, 0 183.33, 0 150 M0 150 C0 122.77, 0 95.54, 0 50 M0 150 C0 126.4, 0 102.79, 0 50 M0 50 C0 16.67, 16.67 0, 50 0 M0 50 C0 16.67, 16.67 0, 50 0" stroke="#ff0" stroke-width="4" fill="none"></path></g><g stroke-linecap="round" transform="translate(30 30) rotate(0 110 80)"><path d="M40 0 L180 0 L189.38 0.63 L197.5 2.5 L204.38 5.63 L210 10 L214.38 15.63 L217.5 22.5 L219.38 30.63 L220 40 L220 120 L219.38 129.38 L217.5 137.5 L214.38 144.38 L210 150 L204.38 154.38 L197.5 157.5 L189.38 159.38 L180 160 L40 160 L30.63 159.38 L22.5 157.5 L15.62 154.38 L10 150 L5.63 144.38 L2.5 137.5 L0.62 129.38 L0 120 L0 40 L0.63 30.63 L2.5 22.5 L5.63 15.62 L10 10 L15.63 5.63 L22.5 2.5 L30.63 0.62 L40 0" stroke="none" stroke-width="0" fill="#000"></path><path d="M40 0 M40 0 C72.89 0, 105.78 0, 180 0 M40 0 C76.32 0, 112.64 0, 180 0 M180 0 C206.67 0, 220 13.33, 220 40 M180 0 C206.67 0, 220 13.33, 220 40 M220 40 C220 70.59, 220 101.18, 220 120 M220 40 C220 71.72, 220 103.44, 220 120 M220 120 C220 146.67, 206.67 160, 180 160 M220 120 C220 146.67, 206.67 160, 180 160 M180 160 C151.79 160, 123.58 160, 40 160 M180 160 C147.83 160, 115.67 160, 40 160 M40 160 C13.33 160, 0 146.67, 0 120 M40 160 C13.33 160, 0 146.67, 0 120 M0 120 C0 99.89, 0 79.77, 0 40 M0 120 C0 93.03, 0 66.07, 0 40 M0 40 C0 13.33, 13.33 0, 40 0 M0 40 C0 13.33, 13.33 0, 40 0" stroke="#000" stroke-width="4" fill="none"></path></g><g transform="translate(52.20858895705521 10) rotate(0 88.8957055214724 90)"><text x="88.89570552147241" y="145.00000000000003" font-family="Cascadia, Segoe UI Emoji" font-size="149.74569096730735px" fill="#ff0" text-anchor="middle" style="white-space: pre;" direction="ltr">&gt;_</text></g></svg>